<svg xmlns="http://www.w3.org/2000/svg" viewBox="0 0 680.83 700.34"><defs><style>.cls-1{fill:#e0d4df;}.cls-2{fill:#fdffb6;}</style></defs><g id="Layer_2" data-name="Layer 2"><g id="Layer_1-2" data-name="Layer 1"><path class="cls-1" d="M547,458.3C354.15,458.3,197.84,302,197.84,109.17A348.73,348.73,0,0,1,215.27,0C88.88,52.51,0,177.13,0,322.53,0,515.35,156.31,671.66,349.13,671.66c154.69,0,285.86-100.62,331.7-240A348.08,348.08,0,0,1,547,458.3Z"/><polygon class="cls-2" points="559.07 200.88 529.13 198.42 510.13 221.69 503.22 192.46 475.21 181.58 500.88 165.97 502.57 135.97 525.35 155.56 554.4 147.9 542.81 175.62 559.07 200.88"/><polygon class="cls-2" points="337.4 108.83 304.32 136.11 308.04 178.83 271.87 155.8 232.38 172.53 243.12 131.02 215 98.64 257.8 96.02 279.9 59.27 295.62 99.16 337.4 108.83"/><polygon class="cls-2" points="475.21 586.31 544.46 563.63 565.02 493.73 607.99 552.58 680.83 550.54 638.14 609.59 662.59 678.23 593.24 655.88 535.51 700.34 535.33 627.48 475.21 586.31"/></g></g></svg>